# xmcd CD database file
#
# Track frame offsets:
#	150
#	14087
#	28557
#	44970
#	59815
#	72150
#	87122
#	102025
#	115675
#	128667
#	141362
#	157162
#
# Disc length: 2239 seconds
#
# Revision: 0
# Processed by: cddbd v1.4PL0 Copyright (c) Steve Scherf et al.
# Submitted via: Feurio! 1.65 - http://www.feurio.com
#
DISCID=ae08bd0c
DTITLE=Christine Perfect - Christine Perfect
DYEAR=1970
DGENRE=blues
TTITLE0=Crazy 'bout You
TTITLE1=I'm On My Way
TTITLE2=Let Me Go (Leave Me Alone)
TTITLE3=Wait And See
TTITLE4=Close To Me
TTITLE5=I'd Rather Go Blind
TTITLE6=When You Say
TTITLE7=And That's Saying A Lot
TTITLE8=No Road Is The Right Road
TTITLE9=For You
TTITLE10=I'm Too Far Gone (To Turn Around)
TTITLE11=I Want You
EXTD=ARD Sony Music 474700-2 1970 Blue Horizon
EXTT0=
EXTT1=
EXTT2=
EXTT3=
EXTT4=
EXTT5=
EXTT6=
EXTT7=
EXTT8=
EXTT9=
EXTT10=
EXTT11=
PLAYORDER=
